<svg width="390" height="844" viewBox="0 0 390 844" fill="none" xmlns="http://www.w3.org/2000/svg">
<g clip-path="url(#clip0_162_4193)">
<rect width="390" height="844" fill="#F4F4F4"/>
<rect x="257.442" y="95.7495" width="30.482" height="5.28" transform="rotate(-153 257.442 95.7495)" fill="#ECB43C"/>
<rect x="66.0818" y="319.749" width="11.482" height="9.28" transform="rotate(30 66.0818 319.749)" fill="#FDA5A5" fill-opacity="0.85"/>
<rect x="286.442" y="583.749" width="17.482" height="8.28" transform="rotate(-25 286.442 583.749)" fill="#56B8A5" fill-opacity="0.75"/>
<rect x="356.442" y="263.749" width="15.482" height="7.28" transform="rotate(-27 356.442 263.749)" fill="#56B8A5" fill-opacity="0.85"/>
<rect x="73.4418" y="624.749" width="14.482" height="8.28" transform="rotate(-51 73.4418 624.749)" fill="#3DBD96" fill-opacity="0.35"/>
<rect x="77.4418" y="385.749" width="8.482" height="4.28" transform="rotate(-168 77.4418 385.749)" fill="#ECB43C" fill-opacity="0.35"/>
<rect x="6.44185" y="394.749" width="16.482" height="4.28" transform="rotate(-176 6.44185 394.749)" fill="#56B8A5"/>
<rect x="130.723" y="289.446" width="14.482" height="8.28" transform="rotate(-148 130.723 289.446)" fill="#56B8A5" fill-opacity="0.35"/>
<rect x="238.442" y="25.7495" width="37.482" height="5.28" transform="rotate(6 238.442 25.7495)" fill="#56B8A5" fill-opacity="0.9"/>
<rect x="96.4418" y="3.74945" width="9.482" height="7.28" transform="rotate(-131 96.4418 3.74945)" fill="#3DBD96" fill-opacity="0.65"/>
<rect x="332.442" y="403.749" width="22.482" height="8.28" transform="rotate(-159 332.442 403.749)" fill="#3DBD96"/>
<rect x="117.442" y="89.7495" width="25.482" height="4.28" transform="rotate(-171 117.442 89.7495)" fill="#ECB43C"/>
<rect x="113.442" y="696.749" width="33.482" height="7.28" transform="rotate(-19 113.442 696.749)" fill="#56B8A5" fill-opacity="0.45"/>
<rect x="347.442" y="563.749" width="29.482" height="4.28" transform="rotate(-178 347.442 563.749)" fill="#FDA5A5" fill-opacity="0.65"/>
<rect x="322.919" y="131.596" width="32.482" height="4.28" transform="rotate(-179 322.919 131.596)" fill="#ECB43C" fill-opacity="0.85"/>
<rect x="94.8707" y="271.718" width="36.482" height="4.28" transform="rotate(158 94.8707 271.718)" fill="#3DBD96" fill-opacity="0.9"/>
<rect x="352.442" y="720.749" width="16.482" height="8.28" transform="rotate(-136 352.442 720.749)" fill="#FDA5A5" fill-opacity="0.85"/>
<rect x="21.4418" y="128.749" width="16.482" height="7.28" transform="rotate(90 21.4418 128.749)" fill="#3DBD96" fill-opacity="0.9"/>
<rect x="296.442" y="599.749" width="31.482" height="6.28" transform="rotate(-136 296.442 599.749)" fill="#56B8A5" fill-opacity="0.75"/>
<rect x="20.4418" y="831.749" width="21.482" height="6.28" transform="rotate(39 20.4418 831.749)" fill="#56B8A5" fill-opacity="0.6"/>
<rect x="326.442" y="778.749" width="15.482" height="6.28" transform="rotate(96 326.442 778.749)" fill="#3DBD96" fill-opacity="0.85"/>
<rect x="175.44" y="300.749" width="11.482" height="7.28" transform="rotate(74 175.44 300.749)" fill="#ECB43C" fill-opacity="0.75"/>
<rect x="79.4418" y="19.7495" width="29.482" height="6.28" transform="rotate(133 79.4418 19.7495)" fill="#ECB43C" fill-opacity="0.85"/>
<rect x="192.442" y="586.218" width="23.482" height="8.28" transform="rotate(-35 192.442 586.218)" fill="#FDA5A5" fill-opacity="0.85"/>
<rect x="336.442" y="264.749" width="36.482" height="4.28" transform="rotate(62 336.442 264.749)" fill="#56B8A5" fill-opacity="0.75"/>
<rect x="322.442" y="558.749" width="17.482" height="7.28" transform="rotate(-91 322.442 558.749)" fill="#FDA5A5"/>
<rect x="360.442" y="278.749" width="27.482" height="8.28" transform="rotate(-68 360.442 278.749)" fill="#56B8A5" fill-opacity="0.35"/>
<rect x="17.4418" y="549.749" width="8.482" height="8.28" transform="rotate(-52 17.4418 549.749)" fill="#3DBD96" fill-opacity="0.6"/>
<rect x="395.442" y="404.749" width="28.482" height="6.28" transform="rotate(-133 395.442 404.749)" fill="#3DBD96" fill-opacity="0.6"/>
<rect x="356.442" y="331.749" width="29.482" height="6.28" transform="rotate(109 356.442 331.749)" fill="#ECB43C" fill-opacity="0.85"/>
<rect x="370.442" y="103.749" width="14.482" height="4.28" transform="rotate(99 370.442 103.749)" fill="#ECB43C" fill-opacity="0.45"/>
<rect x="294.713" y="277.208" width="36.482" height="4.28" transform="rotate(-149 294.713 277.208)" fill="#ECB43C" fill-opacity="0.85"/>
<rect x="362.442" y="579.749" width="33.482" height="4.28" transform="rotate(-115 362.442 579.749)" fill="#FDA5A5" fill-opacity="0.75"/>
<rect x="185.442" y="749.749" width="6.482" height="6.28" transform="rotate(113 185.442 749.749)" fill="#FDA5A5" fill-opacity="0.45"/>
<rect x="29.4418" y="708.749" width="35.482" height="7.28" transform="rotate(57 29.4418 708.749)" fill="#FDA5A5" fill-opacity="0.45"/>
<rect x="53.4418" y="146.749" width="36.482" height="8.28" transform="rotate(57 53.4418 146.749)" fill="#ECB43C" fill-opacity="0.85"/>
<rect x="112.164" y="220.379" width="7.482" height="8.28" transform="rotate(116 112.164 220.379)" fill="#3DBD96" fill-opacity="0.65"/>
<rect x="15.4418" y="254.749" width="20.482" height="4.28" transform="rotate(-19 15.4418 254.749)" fill="#56B8A5" fill-opacity="0.9"/>
<rect x="30.4418" y="377.749" width="25.482" height="7.28" transform="rotate(7 30.4418 377.749)" fill="#3DBD96" fill-opacity="0.6"/>
<rect x="277.442" y="13.7495" width="10.482" height="9.28" transform="rotate(170 277.442 13.7495)" fill="#ECB43C" fill-opacity="0.75"/>
<rect x="127.442" y="148.749" width="10.482" height="6.28" transform="rotate(-129 127.442 148.749)" fill="#56B8A5" fill-opacity="0.35"/>
<rect x="282.442" y="174.749" width="18.482" height="8.28" transform="rotate(92 282.442 174.749)" fill="#FDA5A5" fill-opacity="0.85"/>
<rect x="75.4418" y="782.749" width="31.482" height="8.28" transform="rotate(100 75.4418 782.749)" fill="#56B8A5" fill-opacity="0.65"/>
<rect x="210.442" y="626.749" width="15.482" height="8.28" transform="rotate(120 210.442 626.749)" fill="#3DBD96" fill-opacity="0.85"/>
<rect x="32.4418" y="177.749" width="27.482" height="4.28" transform="rotate(-27 32.4418 177.749)" fill="#56B8A5"/>
<rect x="241.442" y="160.433" width="8.482" height="9.28" transform="rotate(-52 241.442 160.433)" fill="#3DBD96" fill-opacity="0.35"/>
<rect x="288.442" y="194.749" width="32.482" height="6.28" transform="rotate(71 288.442 194.749)" fill="#ECB43C"/>
<rect x="318.442" y="393.749" width="20.482" height="5.28" transform="rotate(66 318.442 393.749)" fill="#ECB43C" fill-opacity="0.6"/>
<rect x="85.4418" y="763.749" width="21.482" height="5.28" transform="rotate(-16 85.4418 763.749)" fill="#FDA5A5" fill-opacity="0.6"/>
<rect x="336.442" y="16.7495" width="35.482" height="7.28" transform="rotate(52 336.442 16.7495)" fill="#FDA5A5" fill-opacity="0.45"/>
<circle cx="61.2568" cy="666.564" r="2.815" fill="#FDA5A5"/>
<circle cx="185.257" cy="117.564" r="6.815" fill="#3DBD96" fill-opacity="0.65"/>
<circle cx="76.2569" cy="534.564" r="6.815" fill="#3DBD96" fill-opacity="0.35"/>
<circle cx="34.2568" cy="214.564" r="5.815" fill="#FDA5A5"/>
<circle cx="279.757" cy="189.064" r="6.315" fill="#FDA5A5" fill-opacity="0.75"/>
<circle cx="292.757" cy="591.064" r="2.315" fill="#ECB43C" fill-opacity="0.45"/>
<circle cx="375.757" cy="777.064" r="3.315" fill="#56B8A5" fill-opacity="0.6"/>
<circle cx="224.257" cy="322.564" r="2.815" fill="#56B8A5" fill-opacity="0.6"/>
<circle cx="206.257" cy="772.564" r="3.815" fill="#FDA5A5" fill-opacity="0.9"/>
<circle cx="118.257" cy="731.564" r="4.815" fill="#ECB43C" fill-opacity="0.9"/>
<circle cx="53.2568" cy="360.564" r="4.815" fill="#56B8A5" fill-opacity="0.6"/>
<circle cx="298.757" cy="47.0644" r="5.315" fill="#ECB43C" fill-opacity="0.6"/>
<circle cx="118.257" cy="441.564" r="3.815" fill="#FDA5A5" fill-opacity="0.35"/>
<circle cx="329.757" cy="384.064" r="3.315" fill="#56B8A5" fill-opacity="0.85"/>
<circle cx="329.757" cy="166.064" r="3.315" fill="#3DBD96" fill-opacity="0.75"/>
<circle cx="38.2568" cy="278.564" r="5.815" fill="#56B8A5" fill-opacity="0.65"/>
<circle cx="76.2569" cy="792.564" r="5.815" fill="#FDA5A5" fill-opacity="0.6"/>
<circle cx="269.257" cy="735.564" r="6.815" fill="#3DBD96" fill-opacity="0.9"/>
<circle cx="104.257" cy="842.564" r="6.815" fill="#3DBD96" fill-opacity="0.6"/>
<circle cx="339.257" cy="522.564" r="2.815" fill="#56B8A5" fill-opacity="0.9"/>
<circle cx="143.757" cy="0.0644507" r="3.315" fill="#3DBD96" fill-opacity="0.9"/>
<circle cx="391.257" cy="493.564" r="3.815" fill="#ECB43C" fill-opacity="0.75"/>
<circle cx="304.757" cy="105.064" r="2.315" fill="#FDA5A5" fill-opacity="0.65"/>
<circle cx="54.2568" cy="71.5645" r="6.815" fill="#ECB43C" fill-opacity="0.85"/>
<circle cx="130.757" cy="151.064" r="3.315" fill="#ECB43C" fill-opacity="0.6"/>
<circle cx="233.757" cy="249.064" r="2.315" fill="#ECB43C" fill-opacity="0.45"/>
<circle cx="358.757" cy="517.064" r="3.315" fill="#3DBD96" fill-opacity="0.45"/>
<circle cx="157.757" cy="145.064" r="3.315" fill="#FDA5A5"/>
<circle cx="124.757" cy="475.064" r="6.315" fill="#ECB43C" fill-opacity="0.75"/>
<circle cx="246.757" cy="440.064" r="6.315" fill="#56B8A5" fill-opacity="0.65"/>
<circle cx="126.757" cy="633.064" r="6.315" fill="#56B8A5" fill-opacity="0.35"/>
<circle cx="87.2569" cy="724.564" r="4.815" fill="#FDA5A5" fill-opacity="0.65"/>
<circle cx="164.757" cy="554.064" r="4.315" fill="#ECB43C" fill-opacity="0.35"/>
<circle cx="388.757" cy="186.064" r="4.315" fill="#3DBD96" fill-opacity="0.85"/>
<circle cx="161.257" cy="450.564" r="6.815" fill="#FDA5A5" fill-opacity="0.65"/>
<circle cx="232.757" cy="128.064" r="5.315" fill="#FDA5A5" fill-opacity="0.65"/>
<circle cx="343.257" cy="605.564" r="5.815" fill="#FDA5A5" fill-opacity="0.75"/>
<circle cx="378.257" cy="470.564" r="5.815" fill="#ECB43C" fill-opacity="0.9"/>
<circle cx="52.7568" cy="429.064" r="4.315" fill="#3DBD96" fill-opacity="0.45"/>
<circle cx="109.257" cy="669.564" r="2.815" fill="#3DBD96" fill-opacity="0.9"/>
<circle cx="159.257" cy="537.564" r="4.815" fill="#56B8A5" fill-opacity="0.65"/>
<circle cx="162.757" cy="39.0644" r="2.315" fill="#56B8A5" fill-opacity="0.85"/>
<circle cx="285.257" cy="11.5645" r="6.815" fill="#3DBD96" fill-opacity="0.35"/>
<circle cx="109.257" cy="168.564" r="2.815" fill="#ECB43C" fill-opacity="0.45"/>
<circle cx="108.757" cy="5.06445" r="4.315" fill="#FDA5A5" fill-opacity="0.35"/>
<circle cx="28.2568" cy="420.564" r="5.815" fill="#FDA5A5" fill-opacity="0.75"/>
<circle cx="266.757" cy="803.064" r="6.315" fill="#3DBD96" fill-opacity="0.75"/>
<mask id="mask0_162_4193" style="mask-type:alpha" maskUnits="userSpaceOnUse" x="21" y="171" width="349" height="389">
<rect x="21" y="171" width="349" height="389" fill="#D9D9D9"/>
</mask>
<g mask="url(#mask0_162_4193)">
<path d="M95.2734 337.309H90.7148V335.469H95.2734C96.1562 335.469 96.8711 335.328 97.418 335.047C97.9648 334.766 98.3633 334.375 98.6133 333.875C98.8711 333.375 99 332.805 99 332.164C99 331.578 98.8711 331.027 98.6133 330.512C98.3633 329.996 97.9648 329.582 97.418 329.27C96.8711 328.949 96.1562 328.789 95.2734 328.789H91.2422V344H88.9805V326.938H95.2734C96.5625 326.938 97.6523 327.16 98.543 327.605C99.4336 328.051 100.109 328.668 100.57 329.457C101.031 330.238 101.262 331.133 101.262 332.141C101.262 333.234 101.031 334.168 100.57 334.941C100.109 335.715 99.4336 336.305 98.543 336.711C97.6523 337.109 96.5625 337.309 95.2734 337.309ZM111.129 341.832V335.305C111.129 334.805 111.027 334.371 110.824 334.004C110.629 333.629 110.332 333.34 109.934 333.137C109.535 332.934 109.043 332.832 108.457 332.832C107.91 332.832 107.43 332.926 107.016 333.113C106.609 333.301 106.289 333.547 106.055 333.852C105.828 334.156 105.715 334.484 105.715 334.836H103.547C103.547 334.383 103.664 333.934 103.898 333.488C104.133 333.043 104.469 332.641 104.906 332.281C105.352 331.914 105.883 331.625 106.5 331.414C107.125 331.195 107.82 331.086 108.586 331.086C109.508 331.086 110.32 331.242 111.023 331.555C111.734 331.867 112.289 332.34 112.688 332.973C113.094 333.598 113.297 334.383 113.297 335.328V341.234C113.297 341.656 113.332 342.105 113.402 342.582C113.48 343.059 113.594 343.469 113.742 343.812V344H111.48C111.371 343.75 111.285 343.418 111.223 343.004C111.16 342.582 111.129 342.191 111.129 341.832ZM111.504 336.312L111.527 337.836H109.336C108.719 337.836 108.168 337.887 107.684 337.988C107.199 338.082 106.793 338.227 106.465 338.422C106.137 338.617 105.887 338.863 105.715 339.16C105.543 339.449 105.457 339.789 105.457 340.18C105.457 340.578 105.547 340.941 105.727 341.27C105.906 341.598 106.176 341.859 106.535 342.055C106.902 342.242 107.352 342.336 107.883 342.336C108.547 342.336 109.133 342.195 109.641 341.914C110.148 341.633 110.551 341.289 110.848 340.883C111.152 340.477 111.316 340.082 111.34 339.699L112.266 340.742C112.211 341.07 112.062 341.434 111.82 341.832C111.578 342.23 111.254 342.613 110.848 342.98C110.449 343.34 109.973 343.641 109.418 343.883C108.871 344.117 108.254 344.234 107.566 344.234C106.707 344.234 105.953 344.066 105.305 343.73C104.664 343.395 104.164 342.945 103.805 342.383C103.453 341.812 103.277 341.176 103.277 340.473C103.277 339.793 103.41 339.195 103.676 338.68C103.941 338.156 104.324 337.723 104.824 337.379C105.324 337.027 105.926 336.762 106.629 336.582C107.332 336.402 108.117 336.312 108.984 336.312H111.504ZM120.082 342.688L123.609 331.32H125.93L120.844 345.957C120.727 346.27 120.57 346.605 120.375 346.965C120.188 347.332 119.945 347.68 119.648 348.008C119.352 348.336 118.992 348.602 118.57 348.805C118.156 349.016 117.66 349.121 117.082 349.121C116.91 349.121 116.691 349.098 116.426 349.051C116.16 349.004 115.973 348.965 115.863 348.934L115.852 347.176C115.914 347.184 116.012 347.191 116.145 347.199C116.285 347.215 116.383 347.223 116.438 347.223C116.93 347.223 117.348 347.156 117.691 347.023C118.035 346.898 118.324 346.684 118.559 346.379C118.801 346.082 119.008 345.672 119.18 345.148L120.082 342.688ZM117.492 331.32L120.785 341.164L121.348 343.449L119.789 344.246L115.125 331.32H117.492ZM130.043 333.84V344H127.863V331.32H129.926L130.043 333.84ZM129.598 337.18L128.59 337.145C128.598 336.277 128.711 335.477 128.93 334.742C129.148 334 129.473 333.355 129.902 332.809C130.332 332.262 130.867 331.84 131.508 331.543C132.148 331.238 132.891 331.086 133.734 331.086C134.328 331.086 134.875 331.172 135.375 331.344C135.875 331.508 136.309 331.77 136.676 332.129C137.043 332.488 137.328 332.949 137.531 333.512C137.734 334.074 137.836 334.754 137.836 335.551V344H135.668V335.656C135.668 334.992 135.555 334.461 135.328 334.062C135.109 333.664 134.797 333.375 134.391 333.195C133.984 333.008 133.508 332.914 132.961 332.914C132.32 332.914 131.785 333.027 131.355 333.254C130.926 333.48 130.582 333.793 130.324 334.191C130.066 334.59 129.879 335.047 129.762 335.562C129.652 336.07 129.598 336.609 129.598 337.18ZM137.812 335.984L136.359 336.43C136.367 335.734 136.48 335.066 136.699 334.426C136.926 333.785 137.25 333.215 137.672 332.715C138.102 332.215 138.629 331.82 139.254 331.531C139.879 331.234 140.594 331.086 141.398 331.086C142.078 331.086 142.68 331.176 143.203 331.355C143.734 331.535 144.18 331.812 144.539 332.188C144.906 332.555 145.184 333.027 145.371 333.605C145.559 334.184 145.652 334.871 145.652 335.668V344H143.473V335.645C143.473 334.934 143.359 334.383 143.133 333.992C142.914 333.594 142.602 333.316 142.195 333.16C141.797 332.996 141.32 332.914 140.766 332.914C140.289 332.914 139.867 332.996 139.5 333.16C139.133 333.324 138.824 333.551 138.574 333.84C138.324 334.121 138.133 334.445 138 334.812C137.875 335.18 137.812 335.57 137.812 335.984ZM154.195 344.234C153.312 344.234 152.512 344.086 151.793 343.789C151.082 343.484 150.469 343.059 149.953 342.512C149.445 341.965 149.055 341.316 148.781 340.566C148.508 339.816 148.371 338.996 148.371 338.105V337.613C148.371 336.582 148.523 335.664 148.828 334.859C149.133 334.047 149.547 333.359 150.07 332.797C150.594 332.234 151.188 331.809 151.852 331.52C152.516 331.23 153.203 331.086 153.914 331.086C154.82 331.086 155.602 331.242 156.258 331.555C156.922 331.867 157.465 332.305 157.887 332.867C158.309 333.422 158.621 334.078 158.824 334.836C159.027 335.586 159.129 336.406 159.129 337.297V338.27H149.66V336.5H156.961V336.336C156.93 335.773 156.812 335.227 156.609 334.695C156.414 334.164 156.102 333.727 155.672 333.383C155.242 333.039 154.656 332.867 153.914 332.867C153.422 332.867 152.969 332.973 152.555 333.184C152.141 333.387 151.785 333.691 151.488 334.098C151.191 334.504 150.961 335 150.797 335.586C150.633 336.172 150.551 336.848 150.551 337.613V338.105C150.551 338.707 150.633 339.273 150.797 339.805C150.969 340.328 151.215 340.789 151.535 341.188C151.863 341.586 152.258 341.898 152.719 342.125C153.188 342.352 153.719 342.465 154.312 342.465C155.078 342.465 155.727 342.309 156.258 341.996C156.789 341.684 157.254 341.266 157.652 340.742L158.965 341.785C158.691 342.199 158.344 342.594 157.922 342.969C157.5 343.344 156.98 343.648 156.363 343.883C155.754 344.117 155.031 344.234 154.195 344.234ZM163.828 334.027V344H161.66V331.32H163.711L163.828 334.027ZM163.312 337.18L162.41 337.145C162.418 336.277 162.547 335.477 162.797 334.742C163.047 334 163.398 333.355 163.852 332.809C164.305 332.262 164.844 331.84 165.469 331.543C166.102 331.238 166.801 331.086 167.566 331.086C168.191 331.086 168.754 331.172 169.254 331.344C169.754 331.508 170.18 331.773 170.531 332.141C170.891 332.508 171.164 332.984 171.352 333.57C171.539 334.148 171.633 334.855 171.633 335.691V344H169.453V335.668C169.453 335.004 169.355 334.473 169.16 334.074C168.965 333.668 168.68 333.375 168.305 333.195C167.93 333.008 167.469 332.914 166.922 332.914C166.383 332.914 165.891 333.027 165.445 333.254C165.008 333.48 164.629 333.793 164.309 334.191C163.996 334.59 163.75 335.047 163.57 335.562C163.398 336.07 163.312 336.609 163.312 337.18ZM180.234 331.32V332.984H173.379V331.32H180.234ZM175.699 328.238H177.867V340.859C177.867 341.289 177.934 341.613 178.066 341.832C178.199 342.051 178.371 342.195 178.582 342.266C178.793 342.336 179.02 342.371 179.262 342.371C179.441 342.371 179.629 342.355 179.824 342.324C180.027 342.285 180.18 342.254 180.281 342.23L180.293 344C180.121 344.055 179.895 344.105 179.613 344.152C179.34 344.207 179.008 344.234 178.617 344.234C178.086 344.234 177.598 344.129 177.152 343.918C176.707 343.707 176.352 343.355 176.086 342.863C175.828 342.363 175.699 341.691 175.699 340.848V328.238ZM198.152 339.688C198.152 339.289 198.09 338.938 197.965 338.633C197.848 338.32 197.637 338.039 197.332 337.789C197.035 337.539 196.621 337.301 196.09 337.074C195.566 336.848 194.902 336.617 194.098 336.383C193.254 336.133 192.492 335.855 191.812 335.551C191.133 335.238 190.551 334.883 190.066 334.484C189.582 334.086 189.211 333.629 188.953 333.113C188.695 332.598 188.566 332.008 188.566 331.344C188.566 330.68 188.703 330.066 188.977 329.504C189.25 328.941 189.641 328.453 190.148 328.039C190.664 327.617 191.277 327.289 191.988 327.055C192.699 326.82 193.492 326.703 194.367 326.703C195.648 326.703 196.734 326.949 197.625 327.441C198.523 327.926 199.207 328.562 199.676 329.352C200.145 330.133 200.379 330.969 200.379 331.859H198.129C198.129 331.219 197.992 330.652 197.719 330.16C197.445 329.66 197.031 329.27 196.477 328.988C195.922 328.699 195.219 328.555 194.367 328.555C193.562 328.555 192.898 328.676 192.375 328.918C191.852 329.16 191.461 329.488 191.203 329.902C190.953 330.316 190.828 330.789 190.828 331.32C190.828 331.68 190.902 332.008 191.051 332.305C191.207 332.594 191.445 332.863 191.766 333.113C192.094 333.363 192.508 333.594 193.008 333.805C193.516 334.016 194.121 334.219 194.824 334.414C195.793 334.688 196.629 334.992 197.332 335.328C198.035 335.664 198.613 336.043 199.066 336.465C199.527 336.879 199.867 337.352 200.086 337.883C200.312 338.406 200.426 339 200.426 339.664C200.426 340.359 200.285 340.988 200.004 341.551C199.723 342.113 199.32 342.594 198.797 342.992C198.273 343.391 197.645 343.699 196.91 343.918C196.184 344.129 195.371 344.234 194.473 344.234C193.684 344.234 192.906 344.125 192.141 343.906C191.383 343.688 190.691 343.359 190.066 342.922C189.449 342.484 188.953 341.945 188.578 341.305C188.211 340.656 188.027 339.906 188.027 339.055H190.277C190.277 339.641 190.391 340.145 190.617 340.566C190.844 340.98 191.152 341.324 191.543 341.598C191.941 341.871 192.391 342.074 192.891 342.207C193.398 342.332 193.926 342.395 194.473 342.395C195.262 342.395 195.93 342.285 196.477 342.066C197.023 341.848 197.438 341.535 197.719 341.129C198.008 340.723 198.152 340.242 198.152 339.688ZM210.738 341.07V331.32H212.918V344H210.844L210.738 341.07ZM211.148 338.398L212.051 338.375C212.051 339.219 211.961 340 211.781 340.719C211.609 341.43 211.328 342.047 210.938 342.57C210.547 343.094 210.035 343.504 209.402 343.801C208.77 344.09 208 344.234 207.094 344.234C206.477 344.234 205.91 344.145 205.395 343.965C204.887 343.785 204.449 343.508 204.082 343.133C203.715 342.758 203.43 342.27 203.227 341.668C203.031 341.066 202.934 340.344 202.934 339.5V331.32H205.102V339.523C205.102 340.094 205.164 340.566 205.289 340.941C205.422 341.309 205.598 341.602 205.816 341.82C206.043 342.031 206.293 342.18 206.566 342.266C206.848 342.352 207.137 342.395 207.434 342.395C208.355 342.395 209.086 342.219 209.625 341.867C210.164 341.508 210.551 341.027 210.785 340.426C211.027 339.816 211.148 339.141 211.148 338.398ZM221.297 342.453C221.812 342.453 222.289 342.348 222.727 342.137C223.164 341.926 223.523 341.637 223.805 341.27C224.086 340.895 224.246 340.469 224.285 339.992H226.348C226.309 340.742 226.055 341.441 225.586 342.09C225.125 342.73 224.52 343.25 223.77 343.648C223.02 344.039 222.195 344.234 221.297 344.234C220.344 344.234 219.512 344.066 218.801 343.73C218.098 343.395 217.512 342.934 217.043 342.348C216.582 341.762 216.234 341.09 216 340.332C215.773 339.566 215.66 338.758 215.66 337.906V337.414C215.66 336.562 215.773 335.758 216 335C216.234 334.234 216.582 333.559 217.043 332.973C217.512 332.387 218.098 331.926 218.801 331.59C219.512 331.254 220.344 331.086 221.297 331.086C222.289 331.086 223.156 331.289 223.898 331.695C224.641 332.094 225.223 332.641 225.645 333.336C226.074 334.023 226.309 334.805 226.348 335.68H224.285C224.246 335.156 224.098 334.684 223.84 334.262C223.59 333.84 223.246 333.504 222.809 333.254C222.379 332.996 221.875 332.867 221.297 332.867C220.633 332.867 220.074 333 219.621 333.266C219.176 333.523 218.82 333.875 218.555 334.32C218.297 334.758 218.109 335.246 217.992 335.785C217.883 336.316 217.828 336.859 217.828 337.414V337.906C217.828 338.461 217.883 339.008 217.992 339.547C218.102 340.086 218.285 340.574 218.543 341.012C218.809 341.449 219.164 341.801 219.609 342.066C220.062 342.324 220.625 342.453 221.297 342.453ZM233.859 342.453C234.375 342.453 234.852 342.348 235.289 342.137C235.727 341.926 236.086 341.637 236.367 341.27C236.648 340.895 236.809 340.469 236.848 339.992H238.91C238.871 340.742 238.617 341.441 238.148 342.09C237.688 342.73 237.082 343.25 236.332 343.648C235.582 344.039 234.758 344.234 233.859 344.234C232.906 344.234 232.074 344.066 231.363 343.73C230.66 343.395 230.074 342.934 229.605 342.348C229.145 341.762 228.797 341.09 228.562 340.332C228.336 339.566 228.223 338.758 228.223 337.906V337.414C228.223 336.562 228.336 335.758 228.562 335C228.797 334.234 229.145 333.559 229.605 332.973C230.074 332.387 230.66 331.926 231.363 331.59C232.074 331.254 232.906 331.086 233.859 331.086C234.852 331.086 235.719 331.289 236.461 331.695C237.203 332.094 237.785 332.641 238.207 333.336C238.637 334.023 238.871 334.805 238.91 335.68H236.848C236.809 335.156 236.66 334.684 236.402 334.262C236.152 333.84 235.809 333.504 235.371 333.254C234.941 332.996 234.438 332.867 233.859 332.867C233.195 332.867 232.637 333 232.184 333.266C231.738 333.523 231.383 333.875 231.117 334.32C230.859 334.758 230.672 335.246 230.555 335.785C230.445 336.316 230.391 336.859 230.391 337.414V337.906C230.391 338.461 230.445 339.008 230.555 339.547C230.664 340.086 230.848 340.574 231.105 341.012C231.371 341.449 231.727 341.801 232.172 342.066C232.625 342.324 233.188 342.453 233.859 342.453ZM246.609 344.234C245.727 344.234 244.926 344.086 244.207 343.789C243.496 343.484 242.883 343.059 242.367 342.512C241.859 341.965 241.469 341.316 241.195 340.566C240.922 339.816 240.785 338.996 240.785 338.105V337.613C240.785 336.582 240.938 335.664 241.242 334.859C241.547 334.047 241.961 333.359 242.484 332.797C243.008 332.234 243.602 331.809 244.266 331.52C244.93 331.23 245.617 331.086 246.328 331.086C247.234 331.086 248.016 331.242 248.672 331.555C249.336 331.867 249.879 332.305 250.301 332.867C250.723 333.422 251.035 334.078 251.238 334.836C251.441 335.586 251.543 336.406 251.543 337.297V338.27H242.074V336.5H249.375V336.336C249.344 335.773 249.227 335.227 249.023 334.695C248.828 334.164 248.516 333.727 248.086 333.383C247.656 333.039 247.07 332.867 246.328 332.867C245.836 332.867 245.383 332.973 244.969 333.184C244.555 333.387 244.199 333.691 243.902 334.098C243.605 334.504 243.375 335 243.211 335.586C243.047 336.172 242.965 336.848 242.965 337.613V338.105C242.965 338.707 243.047 339.273 243.211 339.805C243.383 340.328 243.629 340.789 243.949 341.188C244.277 341.586 244.672 341.898 245.133 342.125C245.602 342.352 246.133 342.465 246.727 342.465C247.492 342.465 248.141 342.309 248.672 341.996C249.203 341.684 249.668 341.266 250.066 340.742L251.379 341.785C251.105 342.199 250.758 342.594 250.336 342.969C249.914 343.344 249.395 343.648 248.777 343.883C248.168 344.117 247.445 344.234 246.609 344.234ZM261.457 340.637C261.457 340.324 261.387 340.035 261.246 339.77C261.113 339.496 260.836 339.25 260.414 339.031C260 338.805 259.375 338.609 258.539 338.445C257.836 338.297 257.199 338.121 256.629 337.918C256.066 337.715 255.586 337.469 255.188 337.18C254.797 336.891 254.496 336.551 254.285 336.16C254.074 335.77 253.969 335.312 253.969 334.789C253.969 334.289 254.078 333.816 254.297 333.371C254.523 332.926 254.84 332.531 255.246 332.188C255.66 331.844 256.156 331.574 256.734 331.379C257.312 331.184 257.957 331.086 258.668 331.086C259.684 331.086 260.551 331.266 261.27 331.625C261.988 331.984 262.539 332.465 262.922 333.066C263.305 333.66 263.496 334.32 263.496 335.047H261.328C261.328 334.695 261.223 334.355 261.012 334.027C260.809 333.691 260.508 333.414 260.109 333.195C259.719 332.977 259.238 332.867 258.668 332.867C258.066 332.867 257.578 332.961 257.203 333.148C256.836 333.328 256.566 333.559 256.395 333.84C256.23 334.121 256.148 334.418 256.148 334.73C256.148 334.965 256.188 335.176 256.266 335.363C256.352 335.543 256.5 335.711 256.711 335.867C256.922 336.016 257.219 336.156 257.602 336.289C257.984 336.422 258.473 336.555 259.066 336.688C260.105 336.922 260.961 337.203 261.633 337.531C262.305 337.859 262.805 338.262 263.133 338.738C263.461 339.215 263.625 339.793 263.625 340.473C263.625 341.027 263.508 341.535 263.273 341.996C263.047 342.457 262.715 342.855 262.277 343.191C261.848 343.52 261.332 343.777 260.73 343.965C260.137 344.145 259.469 344.234 258.727 344.234C257.609 344.234 256.664 344.035 255.891 343.637C255.117 343.238 254.531 342.723 254.133 342.09C253.734 341.457 253.535 340.789 253.535 340.086H255.715C255.746 340.68 255.918 341.152 256.23 341.504C256.543 341.848 256.926 342.094 257.379 342.242C257.832 342.383 258.281 342.453 258.727 342.453C259.32 342.453 259.816 342.375 260.215 342.219C260.621 342.062 260.93 341.848 261.141 341.574C261.352 341.301 261.457 340.988 261.457 340.637ZM273.855 340.637C273.855 340.324 273.785 340.035 273.645 339.77C273.512 339.496 273.234 339.25 272.812 339.031C272.398 338.805 271.773 338.609 270.938 338.445C270.234 338.297 269.598 338.121 269.027 337.918C268.465 337.715 267.984 337.469 267.586 337.18C267.195 336.891 266.895 336.551 266.684 336.16C266.473 335.77 266.367 335.312 266.367 334.789C266.367 334.289 266.477 333.816 266.695 333.371C266.922 332.926 267.238 332.531 267.645 332.188C268.059 331.844 268.555 331.574 269.133 331.379C269.711 331.184 270.355 331.086 271.066 331.086C272.082 331.086 272.949 331.266 273.668 331.625C274.387 331.984 274.938 332.465 275.32 333.066C275.703 333.66 275.895 334.32 275.895 335.047H273.727C273.727 334.695 273.621 334.355 273.41 334.027C273.207 333.691 272.906 333.414 272.508 333.195C272.117 332.977 271.637 332.867 271.066 332.867C270.465 332.867 269.977 332.961 269.602 333.148C269.234 333.328 268.965 333.559 268.793 333.84C268.629 334.121 268.547 334.418 268.547 334.73C268.547 334.965 268.586 335.176 268.664 335.363C268.75 335.543 268.898 335.711 269.109 335.867C269.32 336.016 269.617 336.156 270 336.289C270.383 336.422 270.871 336.555 271.465 336.688C272.504 336.922 273.359 337.203 274.031 337.531C274.703 337.859 275.203 338.262 275.531 338.738C275.859 339.215 276.023 339.793 276.023 340.473C276.023 341.027 275.906 341.535 275.672 341.996C275.445 342.457 275.113 342.855 274.676 343.191C274.246 343.52 273.73 343.777 273.129 343.965C272.535 344.145 271.867 344.234 271.125 344.234C270.008 344.234 269.062 344.035 268.289 343.637C267.516 343.238 266.93 342.723 266.531 342.09C266.133 341.457 265.934 340.789 265.934 340.086H268.113C268.145 340.68 268.316 341.152 268.629 341.504C268.941 341.848 269.324 342.094 269.777 342.242C270.23 342.383 270.68 342.453 271.125 342.453C271.719 342.453 272.215 342.375 272.613 342.219C273.02 342.062 273.328 341.848 273.539 341.574C273.75 341.301 273.855 340.988 273.855 340.637ZM282.105 344H279.938V329.984C279.938 329.07 280.102 328.301 280.43 327.676C280.766 327.043 281.246 326.566 281.871 326.246C282.496 325.918 283.238 325.754 284.098 325.754C284.348 325.754 284.598 325.77 284.848 325.801C285.105 325.832 285.355 325.879 285.598 325.941L285.48 327.711C285.316 327.672 285.129 327.645 284.918 327.629C284.715 327.613 284.512 327.605 284.309 327.605C283.848 327.605 283.449 327.699 283.113 327.887C282.785 328.066 282.535 328.332 282.363 328.684C282.191 329.035 282.105 329.469 282.105 329.984V344ZM284.801 331.32V332.984H277.934V331.32H284.801ZM294.973 341.07V331.32H297.152V344H295.078L294.973 341.07ZM295.383 338.398L296.285 338.375C296.285 339.219 296.195 340 296.016 340.719C295.844 341.43 295.562 342.047 295.172 342.57C294.781 343.094 294.27 343.504 293.637 343.801C293.004 344.09 292.234 344.234 291.328 344.234C290.711 344.234 290.145 344.145 289.629 343.965C289.121 343.785 288.684 343.508 288.316 343.133C287.949 342.758 287.664 342.27 287.461 341.668C287.266 341.066 287.168 340.344 287.168 339.5V331.32H289.336V339.523C289.336 340.094 289.398 340.566 289.523 340.941C289.656 341.309 289.832 341.602 290.051 341.82C290.277 342.031 290.527 342.18 290.801 342.266C291.082 342.352 291.371 342.395 291.668 342.395C292.59 342.395 293.32 342.219 293.859 341.867C294.398 341.508 294.785 341.027 295.02 340.426C295.262 339.816 295.383 339.141 295.383 338.398ZM302.812 326V344H300.633V326H302.812Z" fill="black"/>
</g>
<path d="M257 230.5C257 264.466 229.466 292 195.5 292C161.534 292 134 264.466 134 230.5C134 196.534 161.534 169 195.5 169C229.466 169 257 196.534 257 230.5ZM139.75 230.5C139.75 261.29 164.71 286.25 195.5 286.25C226.29 286.25 251.25 261.29 251.25 230.5C251.25 199.71 226.29 174.75 195.5 174.75C164.71 174.75 139.75 199.71 139.75 230.5Z" fill="#00A91B"/>
<path d="M225.006 210.193L186.879 248.319L169.549 230.989" stroke="url(#paint0_linear_162_4193)" stroke-width="10" stroke-linecap="round" stroke-linejoin="round"/>
</g>
<defs>
<linearGradient id="paint0_linear_162_4193" x1="166.705" y1="229.434" x2="192.656" y2="239.032" gradientUnits="userSpaceOnUse">
<stop stop-color="#00A91B"/>
<stop offset="1" stop-color="#00A91B"/>
</linearGradient>
<clipPath id="clip0_162_4193">
<rect width="390" height="844" fill="white"/>
</clipPath>
</defs>
</svg>
